<?xml version="1.0" encoding="UTF-8" standalone="no"?>
<!DOCTYPE svg PUBLIC "-//W3C//DTD SVG 1.1//EN" "http://www.w3.org/Graphics/SVG/1.1/DTD/svg11.dtd">
<svg version="1.1" xmlns="http://www.w3.org/2000/svg" xmlns:xlink="http://www.w3.org/1999/xlink" preserveAspectRatio="xMidYMid meet" viewBox="150.812 172.524 423.25800000000004 405.08299999999997" width="522.74" height="500"><defs><path d="M523.26 399.44C523.26 488.34 451.09 560.51 362.19 560.51C273.29 560.51 201.12 488.34 201.12 399.44C201.12 310.54 273.29 238.37 362.19 238.37C451.09 238.37 523.26 310.54 523.26 399.44Z" id="byQjLvq3w"></path><path d="M411.39 327.6L571.07 326.77L550.79 341.45L441.38 420.71L483.6 549.06L492.01 574.61L395.32 503.99L396.4 474.54L408.39 459.88L415.94 423.01L395.95 440.78L381.29 426.56L354.19 420.79L370.63 440.78L379.51 464.32L383.96 469.21L376.85 472.76L377.07 490.67L374.4 488.72L371.52 468.32L362.19 467.43L374.63 459.44L347.08 417.23L327.98 409.68L332.87 407.46L336.87 401.24L335.53 394.58L347.08 405.24L367.08 400.35L369.3 388.36L327.98 369.7L298.22 413.68L337.76 470.54L333.99 500.18L232.46 574.33L240.77 549.06L282.99 420.71L173.58 341.45L153.31 326.77L177.07 326.9L312.16 327.6L353.94 199.12L361.77 175.02L369.61 199.12L411.39 327.6ZM395.96 438.11L426.17 411.01L412.39 393.25L383.96 427.45L395.96 438.11ZM382.64 425.23L410.18 391.47L390.63 378.14L364.87 416.79L382.64 425.23ZM358.64 417.68L366.19 404.79L346.2 410.57L358.64 417.68ZM371.97 387.47L369.75 398.57L377.75 393.24L391.97 372.81L369.75 359.04L356.87 379.03L371.97 387.47ZM354.65 378.58L367.09 357.7L349.32 347.49L332.88 369.25L354.65 378.58Z" id="aavMvIMgs"></path><path d="M359.63 176.56L362.23 175.71L366.23 187.99L363.63 188.83L359.63 176.56Z" id="f1ROZnKDJ"></path></defs><g><g><use xlink:href="#byQjLvq3w" opacity="1" fill="#966b60" fill-opacity="1"></use><g><use xlink:href="#byQjLvq3w" opacity="1" fill-opacity="0" stroke="#000000" stroke-width="5" stroke-opacity="1"></use></g></g><g><use xlink:href="#aavMvIMgs" opacity="1" fill="#ffffff" fill-opacity="1"></use><g><use xlink:href="#aavMvIMgs" opacity="1" fill-opacity="0" stroke="#000000" stroke-width="5" stroke-opacity="1"></use></g></g><g><use xlink:href="#f1ROZnKDJ" opacity="1" fill="#020000" fill-opacity="1"></use></g></g></svg>