<?xml version="1.0" encoding="UTF-8" standalone="no"?>
<!DOCTYPE svg PUBLIC "-//W3C//DTD SVG 1.1//EN" "http://www.w3.org/Graphics/SVG/1.1/DTD/svg11.dtd">
<svg version="1.1" xmlns="http://www.w3.org/2000/svg" xmlns:xlink="http://www.w3.org/1999/xlink" preserveAspectRatio="xMidYMid meet" viewBox="5.870568954374095 -0.047360130397009925 982.2734048570438 323.10556741535447" width="976.77" height="317.61"><defs><path d="M174.39 306.89C103.74 306.89 46.36 249.52 46.36 178.86C46.36 108.2 103.74 50.84 174.39 50.84C245.05 50.84 302.41 108.2 302.41 178.86C302.41 249.52 245.05 306.89 174.39 306.89Z" id="aZmfWB0VD"></path><path d="M174.39 306.89C103.74 306.89 46.36 249.52 46.36 178.86C46.36 108.2 103.74 50.84 174.39 50.84C245.05 50.84 302.41 108.2 302.41 178.86C302.41 249.52 245.05 306.89 174.39 306.89Z" id="c41Mwx3S1R"></path><path d="M340.41 123.07L324.3 134.74L237.33 197.74L270.89 299.75L277.57 320.06L200.72 263.92L201.58 240.52L211.11 228.87L217.12 199.56L201.22 213.68L189.57 202.39L168.03 197.79L181.1 213.68L188.16 232.39L191.69 236.28L186.04 239.1L186.21 253.34L184.09 251.78L181.8 235.58L174.39 234.87L184.28 228.51L162.38 194.97L147.2 188.97L151.08 187.2L154.26 182.26L153.2 176.96L162.38 185.43L178.27 181.55L180.04 172.02L147.2 157.18L123.54 192.14L154.97 237.34L151.97 260.9L71.28 319.83L77.88 299.75L111.44 197.74L24.48 134.74L8.37 123.07L27.26 123.17L134.62 123.72L167.83 21.61L174.06 2.45L180.28 21.61L213.49 123.72L340.41 123.07ZM225.24 190.03L214.3 175.91L191.69 203.09L201.23 211.56L225.24 190.03ZM212.54 174.49L197 163.89L176.52 194.62L190.64 201.33L212.54 174.49ZM177.57 185.08L161.68 189.68L171.57 195.32L177.57 185.08ZM180.4 180.14L186.75 175.9L198.06 159.66L180.4 148.71L170.16 164.6L182.17 171.31L180.4 180.14ZM178.28 147.66L164.16 139.53L151.09 156.83L168.4 164.25L178.28 147.66Z" id="h4V5MlnuZS"></path><path d="M340.41 123.07L324.3 134.74L237.33 197.74L270.89 299.75L277.57 320.06L200.72 263.92L201.58 240.52L211.11 228.87L217.12 199.56L201.22 213.68L189.57 202.39L168.03 197.79L181.1 213.68L188.16 232.39L191.69 236.28L186.04 239.1L186.21 253.34L184.09 251.78L181.8 235.58L174.39 234.87L184.28 228.51L162.38 194.97L147.2 188.97L151.08 187.2L154.26 182.26L153.2 176.96L162.38 185.43L178.27 181.55L180.04 172.02L147.2 157.18L123.54 192.14L154.97 237.34L151.97 260.9L71.28 319.83L77.88 299.75L111.44 197.74L24.48 134.74L8.37 123.07L27.26 123.17L134.62 123.72L167.83 21.61L174.06 2.45L180.28 21.61L213.49 123.72L340.41 123.07ZM225.24 190.03L214.3 175.91L191.69 203.09L201.23 211.56L225.24 190.03ZM212.54 174.49L197 163.89L176.52 194.62L190.64 201.33L212.54 174.49ZM177.57 185.08L161.68 189.68L171.57 195.32L177.57 185.08ZM180.4 180.14L186.75 175.9L198.06 159.66L180.4 148.71L170.16 164.6L182.17 171.31L180.4 180.14ZM178.28 147.66L164.16 139.53L151.09 156.83L168.4 164.25L178.28 147.66Z" id="fJQSEL9h"></path><path d="M375.6 77.04L340.41 77.04L340.41 59.98L428.99 59.98L428.99 77.04L393.8 77.04L393.8 168.72L375.6 168.72L375.6 77.04Z" id="d3c43pl4Uy"></path><path d="M490.61 129.46C490.61 125.61 490.13 121.77 490.08 120.92C489.55 116.23 487.87 112.8 487.62 111.89C485.7 107.55 482.46 105.47 481.89 104.76C480.58 103.82 479.12 103.12 477.56 102.71C474.92 101.96 472.17 102.04 471.57 101.96C468.11 101.96 465.39 102.98 464.71 103.1C462.76 103.75 460.96 104.8 459.43 106.17C459.13 106.43 458.83 106.71 458.55 106.98C457.61 107.94 456.78 109.03 456.1 110.19C455.19 111.75 454.62 113.3 454.46 113.64C454.34 113.94 454.24 114.24 454.13 114.54C453.7 115.83 453.35 117.16 453.12 118.51C452.75 120.55 452.65 122.48 452.6 122.92C452.51 124.21 452.47 125.51 452.47 126.81C451.39 126.35 442.75 122.66 441.67 122.21C441.65 118.27 442.13 114.34 443.1 110.52C443.74 108.04 444.61 105.64 445.71 103.33C449.76 94.87 456.42 91.2 457.61 89.84C460.85 87.8 464.44 86.38 468.21 85.65C471.08 85.09 474.01 84.8 476.94 84.82C479.04 84.81 481.14 84.95 483.22 85.24C486.48 85.71 488.59 86.53 489.19 86.68C490.12 87.01 491.02 87.4 491.89 87.85C493.88 88.85 495.76 90.09 497.46 91.52C498.88 92.71 500.15 94.07 501.26 95.55C504.72 100.22 505.87 104.52 506.38 105.52C506.99 107.4 507.49 109.33 507.89 111.28C508.17 112.68 508.39 114.09 508.54 115.52C508.63 116.44 508.72 117.36 508.8 118.3C509.03 121.07 509.01 122.58 509.04 123.05C509.04 123.1 509.04 123.14 509.04 123.18C509.04 126.22 509.04 141.4 509.04 168.72C507.81 168.72 501.66 168.72 490.61 168.72C490.61 144.28 490.61 131.2 490.61 129.46ZM434.04 59.98L450.28 59.98L450.28 117.22L452.47 117.22L452.47 168.72L434.04 168.72L434.04 59.98Z" id="b3pPdQdUcY"></path><path d="M579.37 126C579.36 123.7 579.24 121.41 578.97 119.13C578.01 111 575.12 107.84 574.69 106.59C572.68 103.95 569.84 102.07 566.61 101.26C563.75 100.47 560.83 100.55 560.19 100.47C558.03 100.45 555.88 100.68 553.77 101.15C549.36 102.16 546.97 104.35 546.21 104.7C545.24 105.49 544.36 106.39 543.58 107.37C539.51 112.54 538.99 119.88 538.48 121.26C538.25 123.37 538.13 125.47 538.14 127.58C538.13 130.04 538.32 132.51 538.7 134.94C539.35 138.88 540.54 141.33 540.74 142.05C541.48 143.73 542.43 145.32 543.58 146.76C546.28 150.13 550.13 152.39 554.39 153.11C556.05 153.41 557.74 153.57 559.43 153.56C566.15 153.56 569.86 150.87 571.02 150.57C573.84 148.84 576.17 146.38 577.75 143.47C578.04 142.96 578.29 142.45 578.54 141.93C580.34 142.47 594.72 146.82 596.51 147.36C591.83 158.39 583.5 162.79 582.05 164.5C572.27 170.62 562.65 170.01 560.49 170.62C548.11 170.62 540.92 165.8 538.75 165.26C529.38 159.9 525.6 151.87 524.13 150.39C521.57 145.68 519.93 140.54 519.3 135.22C519.01 132.99 518.88 130.74 518.89 128.48C518.87 124.66 519.21 120.85 519.94 117.09C520.72 112.97 522.1 109 524.01 105.26C529.15 95.41 536.86 91.5 538.29 89.97C547.43 84.54 557.32 85.08 559.43 84.54C562.92 84.51 566.41 84.89 569.81 85.67C573.79 86.58 577.59 88.2 580.99 90.46C586.22 93.98 590.37 98.86 593.03 104.57C593.44 105.43 593.81 106.3 594.17 107.19C595.58 110.78 596.55 114.54 597.05 118.36C597.66 122.77 597.79 127.53 597.42 132.64C596.21 132.64 590.2 132.64 579.37 132.64C579.37 128.51 579.37 126.29 579.37 126ZM532.4 118.9L588.51 118.9L588.51 132.64L532.4 132.64L532.4 118.9Z" id="ae3BzIHph"></path><path d="M629.5 59.98C655.37 59.98 669.74 59.98 672.62 59.98C681.64 59.98 686.47 62.64 688.01 62.94C688.93 63.37 689.84 63.85 690.7 64.39C693.43 66.07 695.87 68.18 697.92 70.65C699.2 72.2 700.3 73.89 701.2 75.69C704.63 82.55 704.28 88.47 704.63 89.88C704.65 92.36 704.37 94.82 703.81 97.23C703.15 100.05 701.99 102.73 700.36 105.14C697.52 109.31 693.66 112.13 688.77 113.59C688.77 111.32 688.77 110.07 688.77 109.82C691.44 110.4 694.02 111.34 696.43 112.62C699.57 114.3 702.29 116.67 704.36 119.55C709.69 126.96 709.16 134.71 709.69 136.4C709.71 139.26 709.43 142.12 708.88 144.93C708.3 147.84 707.33 150.66 705.99 153.31C702.29 160.56 696.1 163.51 695 164.64C692.36 166.09 689.52 167.14 686.57 167.76C683.65 168.4 680.45 168.72 677 168.72C673.83 168.72 658 168.72 629.5 168.72C629.5 103.48 629.5 67.23 629.5 59.98ZM674.73 151.58C676.43 151.59 678.12 151.38 679.77 150.97C680.98 150.66 682.14 150.22 683.26 149.65C687.04 147.73 688.6 144.76 689.19 144.22C690.17 142.59 690.83 140.78 691.11 138.9C691.27 137.89 691.35 136.88 691.34 135.87C691.35 134.26 691.14 132.66 690.71 131.11C690.4 130.04 689.98 128.99 689.45 128.02C688.22 125.76 686.39 123.89 684.17 122.6C684.09 122.55 684.02 122.51 683.94 122.46C682.45 121.63 680.82 121.04 679.13 120.73C677.85 120.5 676.56 120.38 675.26 120.39C673.43 120.39 664.33 120.39 647.92 120.39C647.92 122.47 647.92 132.86 647.92 151.58C664.6 151.58 673.54 151.58 674.73 151.58ZM672.39 103.4C673.71 103.41 675.03 103.26 676.32 102.97C677.39 102.73 678.42 102.37 679.41 101.88C682.51 100.38 683.82 97.88 684.31 97.43C685.02 96.28 685.51 95.01 685.78 93.69C686.11 92.17 686.09 90.75 686.13 90.42C686.13 90.34 686.13 90.26 686.13 90.19C686.15 88.55 685.89 86.91 685.36 85.36C684.76 83.63 683.78 82.06 682.51 80.75C680.88 79.07 678.79 77.91 676.52 77.42C675.16 77.11 673.78 76.96 672.39 76.96C670.76 76.96 662.6 76.96 647.92 76.96C647.92 78.73 647.92 87.54 647.92 103.4C663.15 103.4 671.3 103.4 672.39 103.4Z" id="b1qiQnT7U5"></path><path d="M719.31 57.71L737.51 57.71L737.51 168.72L719.31 168.72L719.31 57.71Z" id="c1MCBR9J84"></path><path d="M797.97 105.22C796.84 104.08 795.48 103.2 793.98 102.64C790.64 101.31 786.49 101.37 785.66 101.23C785.44 101.23 785.21 101.23 784.98 101.23C779.47 101.23 775.41 103.53 774.34 103.79C771.63 105.16 769.45 107.39 768.16 110.14C767.78 110.95 767.44 111.78 767.17 112.63C765.51 112.11 752.22 107.93 750.55 107.41C753.57 97.07 760.92 92.46 762.07 90.8C769.19 85.55 778.65 85.31 780.5 84.7C781.99 84.59 783.48 84.54 784.98 84.54C788.21 84.52 791.43 84.78 794.61 85.31C797.88 85.86 801.07 86.79 804.13 88.08C812.4 91.63 815.17 98.55 816.4 99.71C817.54 101.91 818.34 104.26 818.78 106.7C818.9 107.3 818.98 107.91 819.04 108.51C819.22 110.27 819.34 112.05 819.41 113.82C819.47 115.31 819.5 116.79 819.5 118.29C819.5 121.63 819.5 138.32 819.5 168.35C818.44 168.35 813.12 168.35 803.56 168.35C803.56 157.75 803.56 151.86 803.56 150.68C805.15 152.41 806.03 153.36 806.2 153.56C804.73 155.96 803.03 158.21 801.12 160.28C798.87 162.75 796.24 164.86 793.33 166.51C790.73 167.93 787.95 168.97 785.05 169.59C781.35 170.42 777.86 170.48 777.06 170.58C776.36 170.61 775.65 170.62 774.95 170.62C772.69 170.63 770.44 170.44 768.22 170.07C763.62 169.26 760.81 167.55 759.99 167.26C757.74 166.04 755.68 164.48 753.92 162.64C752.68 161.33 751.62 159.88 750.74 158.31C747.61 152.72 747.92 147.23 747.61 146.01C747.6 144.01 747.79 142.03 748.16 140.07C748.47 138.47 748.95 136.9 749.57 135.4C751.53 130.67 755.01 128.05 755.62 127.24C759.37 124.07 764.21 122.49 765.17 121.97C765.51 121.84 765.84 121.73 766.18 121.62C767.71 121.13 769.25 120.68 770.8 120.28C773.98 119.47 777.01 118.9 777.7 118.74C779.99 118.3 782.28 117.88 784.59 117.51C787.07 117.1 789.56 116.72 792.05 116.36C796.05 115.8 800.06 115.21 804.06 114.61C805.45 114.41 806.85 114.2 808.24 113.99C808.24 113.99 802.4 117.32 801.75 117.69C801.83 109.23 798.35 106.47 797.97 105.22ZM792.91 131.28C791.52 131.51 790.12 131.75 788.73 132C785.44 132.59 783.39 133.02 782.79 133.13C781.54 133.38 780.29 133.67 779.05 133.98C777.29 134.43 776.09 134.82 775.75 134.92C775.61 134.97 775.47 135.01 775.32 135.05C774.44 135.37 773.58 135.72 772.74 136.12C771.41 136.74 770.56 137.32 770.31 137.46C770.19 137.54 770.07 137.62 769.96 137.7C769.24 138.19 768.57 138.75 767.97 139.38C767.45 139.92 766.99 140.53 766.6 141.17C766.06 142.1 765.69 143.13 765.55 144.19C765.47 144.72 765.43 145.25 765.43 145.78C765.42 146.82 765.58 147.86 765.88 148.86C766.13 149.66 766.48 150.41 766.94 151.1C767.66 152.18 768.59 153.11 769.67 153.82C770.21 154.18 770.77 154.49 771.35 154.77C773.88 155.94 776.83 155.97 777.44 156.1C777.81 156.11 778.19 156.12 778.57 156.12C784.19 156.12 787.34 154.5 788.31 154.33C788.59 154.2 788.86 154.07 789.14 153.93C790.48 153.26 791.76 152.48 792.97 151.59C794.13 150.7 795.19 149.7 796.12 148.57C796.74 147.83 797.31 147.06 797.84 146.24C798.61 145.06 798.99 144.17 799.12 143.93C799.32 143.5 799.49 143.06 799.64 142.61C800.21 141.2 800.62 139.74 800.88 138.25C801.08 137.06 801.21 135.85 801.26 134.64C801.29 133.92 801.32 133.22 801.34 132.5C801.44 129.88 801.44 128.41 801.45 127.96C801.45 127.76 801.45 127.56 801.45 127.35C801.45 127.35 806.48 128.85 807.04 129.01C798.8 130.3 794.33 131.06 792.91 131.28Z" id="a35oO64RKp"></path><path d="M883.63 109.82C882.45 108.06 881 106.53 879.31 105.26C874.4 101.6 869.25 101.97 868.13 101.6C861.3 101.6 857.92 104.4 856.79 104.71C856.66 104.79 856.54 104.88 856.42 104.96C851.82 108.33 850.31 113.29 849.63 114.21C848.73 116.66 848.12 119.19 847.8 121.76C847.55 123.69 847.43 125.63 847.44 127.58C847.42 130.19 847.65 132.8 848.11 135.36C849.31 141.78 852.2 145.28 852.65 146.38C855.42 150.23 859.67 152.73 864.39 153.29C865.63 153.47 866.87 153.56 868.13 153.56C875.38 153.56 878.42 150.56 879.57 150.23C881.27 148.86 882.71 147.18 883.79 145.29C884.64 143.82 885.34 142.26 885.88 140.64C887.74 141.06 902.6 144.39 904.45 144.8C903.37 148.47 901.76 151.97 899.68 155.19C897.44 158.61 894.57 161.57 891.24 163.94C886.82 167.03 881.76 169.08 876.45 169.93C873.7 170.4 870.92 170.63 868.13 170.62C864.66 170.64 861.2 170.29 857.81 169.55C853.84 168.69 850.05 167.14 846.61 164.99C837.7 159.37 834.34 151.16 832.98 149.63C830.69 144.83 829.2 139.68 828.61 134.39C828.33 132.13 828.19 129.86 828.18 127.58C828.26 115.05 832.63 107.56 833.13 105.34C838.01 95.64 845.6 91.61 846.98 90.09C855.97 84.54 866.22 85.09 868.36 84.54C872.18 84.51 875.99 84.96 879.7 85.87C884.08 86.96 888.22 88.88 891.88 91.52C898.29 96.18 902.49 102.53 904.45 110.59C893.58 113.53 887.54 115.17 886.33 115.5C885.7 113.48 884.79 111.57 883.63 109.82Z" id="b2UGzlW3gp"></path><path d="M911.44 59.98L929.86 59.98L929.86 126.43L959.69 87.16L982.42 87.16L950.79 127.94L985.14 168.72L961.05 168.72L929.86 129.46L929.86 168.72L911.29 168.72L911.44 59.98Z" id="a2HsvLhCTB"></path><path d="M375.6 216.43L340.41 216.43L340.41 199.36L428.99 199.36L428.99 216.43L393.8 216.43L393.8 308.1L375.6 308.1L375.6 216.43Z" id="a4H7fAebkS"></path><path d="M478.65 265.75C478.64 263.45 478.52 261.16 478.25 258.88C477.29 250.75 474.4 247.6 473.97 246.34C471.97 243.7 469.12 241.82 465.9 241.02C463.03 240.22 460.11 240.3 459.47 240.22C457.31 240.21 455.16 240.44 453.05 240.9C448.64 241.91 446.25 244.1 445.49 244.46C444.52 245.25 443.64 246.15 442.86 247.14C438.8 252.29 438.28 259.63 437.77 261.02C437.53 263.12 437.41 265.23 437.42 267.33C437.41 269.8 437.6 272.26 437.98 274.7C438.63 278.64 439.82 281.09 440.02 281.8C440.76 283.49 441.71 285.07 442.86 286.51C445.56 289.88 449.41 292.14 453.68 292.86C455.34 293.16 457.03 293.32 458.72 293.31C465.43 293.31 469.15 290.63 470.31 290.33C473.13 288.59 475.45 286.14 477.03 283.22C477.32 282.72 477.57 282.2 477.82 281.68C479.62 282.22 494 286.57 495.79 287.12C491.11 298.14 482.78 302.54 481.34 304.26C471.55 310.37 461.93 309.76 459.78 310.37C447.39 310.37 440.2 305.55 438.03 305.02C428.66 299.66 424.88 291.63 423.41 290.14C420.85 285.44 419.21 280.3 418.58 274.98C418.3 272.74 418.16 270.49 418.17 268.25C418.15 264.41 418.5 260.6 419.22 256.85C420.01 252.74 421.38 248.75 423.31 245.03C428.43 235.16 436.14 231.25 437.58 229.73C446.71 224.29 456.6 224.84 458.72 224.29C462.2 224.27 465.69 224.65 469.09 225.43C473.08 226.33 476.87 227.96 480.28 230.22C485.5 233.73 489.66 238.61 492.31 244.32C492.72 245.18 493.1 246.06 493.46 246.95C494.86 250.54 495.83 254.29 496.33 258.12C496.94 262.53 497.07 267.28 496.7 272.39C495.5 272.39 489.48 272.39 478.65 272.39C478.65 268.26 478.65 266.05 478.65 265.75ZM431.68 258.65L487.79 258.65L487.79 272.39L431.68 272.39L431.68 258.65Z" id="b4ZZltdmji"></path><path d="M522.51 266.87L493.29 226.55L514.73 226.55L533.09 252.6L551.13 226.55L572.58 226.55L543.35 266.87L573.33 308.1L551.89 308.1L533.09 281.14L514.13 308.1L492.69 308.1L522.51 266.87Z" id="p2vPrtKVoD"></path><path d="M622.51 244.99C621.38 243.85 620.02 242.96 618.52 242.39C615.18 241.07 611.03 241.13 610.2 240.99C609.97 240.98 609.74 240.98 609.52 240.98C604.01 240.98 599.94 243.29 598.87 243.55C596.16 244.91 593.99 247.15 592.7 249.91C592.31 250.7 591.98 251.54 591.7 252.38C590.04 251.86 576.75 247.7 575.09 247.18C578.11 236.82 585.45 232.22 586.6 230.56C593.73 225.3 603.18 225.07 605.03 224.46C606.52 224.34 608.02 224.29 609.52 224.29C612.75 224.28 615.96 224.54 619.14 225.07C622.41 225.62 625.61 226.55 628.66 227.84C636.93 231.39 639.71 238.31 640.94 239.47C642.07 241.67 642.87 244.02 643.33 246.45C643.43 247.05 643.51 247.66 643.58 248.27C643.76 250.03 643.88 251.8 643.95 253.57C644 255.06 644.03 256.56 644.03 258.05C644.03 261.38 644.03 278.07 644.03 308.11C642.97 308.11 637.66 308.11 628.1 308.11C628.1 297.51 628.1 291.62 628.1 290.44C629.68 292.16 630.57 293.12 630.74 293.31C629.26 295.71 627.56 297.96 625.67 300.03C623.41 302.51 620.77 304.61 617.87 306.26C615.27 307.68 612.48 308.72 609.59 309.35C605.89 310.18 602.4 310.24 601.6 310.33C600.89 310.36 600.19 310.37 599.48 310.37C597.22 310.39 594.97 310.21 592.75 309.82C588.16 309.01 585.35 307.3 584.53 307.01C582.27 305.8 580.22 304.23 578.45 302.39C577.22 301.08 576.15 299.64 575.28 298.07C572.14 292.48 572.46 286.99 572.14 285.76C572.13 283.77 572.32 281.78 572.69 279.84C573.01 278.22 573.48 276.66 574.11 275.15C576.07 270.43 579.54 267.81 580.15 267C583.9 263.84 588.75 262.25 589.71 261.72C590.04 261.61 590.38 261.49 590.72 261.37C592.25 260.88 593.78 260.44 595.34 260.04C598.52 259.22 601.54 258.65 602.24 258.5C604.53 258.06 606.83 257.65 609.12 257.26C611.61 256.85 614.1 256.47 616.58 256.12C620.59 255.55 624.6 254.97 628.59 254.38C629.99 254.16 631.38 253.95 632.78 253.74C632.78 253.74 626.93 257.07 626.28 257.44C626.36 248.98 622.89 246.22 622.51 244.99ZM617.45 271.03C616.06 271.27 614.66 271.51 613.27 271.75C609.98 272.34 607.93 272.77 607.34 272.88C606.08 273.14 604.82 273.43 603.59 273.74C601.84 274.19 600.62 274.58 600.29 274.67C600.15 274.72 600 274.77 599.85 274.81C598.98 275.12 598.11 275.47 597.27 275.88C595.94 276.51 595.09 277.09 594.84 277.21C594.73 277.29 594.61 277.37 594.5 277.45C593.77 277.94 593.11 278.51 592.51 279.13C591.98 279.68 591.52 280.28 591.13 280.93C590.59 281.86 590.23 282.88 590.08 283.95C590 284.47 589.96 285 589.96 285.53C589.95 286.58 590.11 287.62 590.41 288.62C590.66 289.41 591.02 290.17 591.47 290.86C592.19 291.94 593.12 292.86 594.21 293.58C594.74 293.93 595.3 294.25 595.89 294.52C598.41 295.7 601.37 295.72 601.97 295.86C602.35 295.88 602.73 295.88 603.1 295.88C608.72 295.88 611.88 294.25 612.85 294.08C613.12 293.95 613.41 293.82 613.67 293.69C615.02 293.03 616.31 292.24 617.5 291.34C618.67 290.46 619.73 289.45 620.66 288.32C621.28 287.59 621.84 286.81 622.38 286C623.14 284.82 623.52 283.92 623.65 283.7C623.85 283.25 624.03 282.81 624.17 282.36C624.74 280.96 625.16 279.5 625.41 278.01C625.62 276.81 625.74 275.6 625.79 274.39C625.82 273.68 625.85 272.97 625.88 272.25C625.97 269.63 625.97 268.17 625.98 267.71C625.98 267.51 625.98 267.31 625.98 267.11C625.98 267.11 631.01 268.6 631.57 268.77C623.34 270.05 618.86 270.81 617.45 271.03Z" id="iUcIbOYMp"></path><path d="M712.15 268.83C712.15 264.98 711.67 261.15 711.62 260.31C711.09 255.62 709.41 252.19 709.17 251.28C707.24 246.94 704 244.86 703.43 244.14C702.12 243.21 700.66 242.51 699.1 242.1C696.47 241.35 693.71 241.42 693.12 241.35C689.65 241.35 686.94 242.37 686.25 242.48C684.3 243.14 682.51 244.18 680.97 245.56C680.67 245.81 680.38 246.09 680.09 246.37C679.15 247.33 678.32 248.41 677.65 249.58C676.73 251.13 676.16 252.69 676.01 253.03C675.89 253.33 675.78 253.62 675.67 253.92C675.24 255.22 674.9 256.55 674.66 257.89C674.3 259.94 674.19 261.87 674.14 262.3C674.05 263.6 674.01 264.9 674.01 266.19C672.93 265.73 664.3 262.05 663.22 261.59C663.19 257.65 663.67 253.73 664.64 249.91C665.28 247.43 666.15 245.02 667.25 242.71C671.29 234.25 677.96 230.58 679.15 229.23C682.39 227.19 685.98 225.76 689.76 225.04C692.62 224.47 695.55 224.19 698.48 224.21C700.58 224.2 702.68 224.34 704.77 224.62C708.03 225.09 710.14 225.92 710.74 226.07C711.66 226.39 712.55 226.79 713.43 227.23C715.42 228.24 717.3 229.48 719.01 230.91C720.42 232.1 721.69 233.44 722.8 234.93C726.27 239.61 727.42 243.91 727.93 244.9C728.53 246.79 729.03 248.72 729.43 250.66C729.71 252.07 729.93 253.48 730.08 254.91C730.18 255.83 730.26 256.75 730.34 257.68C730.57 260.46 730.55 261.96 730.57 262.44C730.57 262.48 730.57 262.53 730.57 262.57C730.57 265.6 730.57 280.79 730.57 308.1C729.34 308.1 723.2 308.1 712.15 308.1C712.15 283.67 712.15 270.58 712.15 268.83ZM655.58 226.55L671.82 226.55L671.82 251.85L674.01 251.85L674.01 308.1L655.58 308.1L655.58 226.55Z" id="dCvEh3GKL"></path></defs><g><g><use xlink:href="#aZmfWB0VD" opacity="1" fill="#e31c23" fill-opacity="1"></use><g><use xlink:href="#aZmfWB0VD" opacity="1" fill-opacity="0" stroke="#000000" stroke-width="1" stroke-opacity="0"></use></g></g><g><use xlink:href="#c41Mwx3S1R" opacity="1" fill="#000000" fill-opacity="0"></use><g><use xlink:href="#c41Mwx3S1R" opacity="1" fill-opacity="0" stroke="#000000" stroke-width="5" stroke-opacity="1"></use></g></g><g><use xlink:href="#h4V5MlnuZS" opacity="1" fill="#ffffff" fill-opacity="1"></use><g><use xlink:href="#h4V5MlnuZS" opacity="1" fill-opacity="0" stroke="#000000" stroke-width="1" stroke-opacity="0"></use></g></g><g><use xlink:href="#fJQSEL9h" opacity="1" fill="#000000" fill-opacity="0"></use><g><use xlink:href="#fJQSEL9h" opacity="1" fill-opacity="0" stroke="#000000" stroke-width="5" stroke-opacity="1"></use></g></g><g><use xlink:href="#d3c43pl4Uy" opacity="1" fill="#000000" fill-opacity="1"></use><g><use xlink:href="#d3c43pl4Uy" opacity="1" fill-opacity="0" stroke="#000000" stroke-width="1" stroke-opacity="0"></use></g></g><g><use xlink:href="#b3pPdQdUcY" opacity="1" fill="#000000" fill-opacity="1"></use><g><use xlink:href="#b3pPdQdUcY" opacity="1" fill-opacity="0" stroke="#000000" stroke-width="1" stroke-opacity="0"></use></g></g><g><use xlink:href="#ae3BzIHph" opacity="1" fill="#000000" fill-opacity="1"></use><g><use xlink:href="#ae3BzIHph" opacity="1" fill-opacity="0" stroke="#000000" stroke-width="1" stroke-opacity="0"></use></g></g><g><use xlink:href="#b1qiQnT7U5" opacity="1" fill="#000000" fill-opacity="1"></use><g><use xlink:href="#b1qiQnT7U5" opacity="1" fill-opacity="0" stroke="#000000" stroke-width="1" stroke-opacity="0"></use></g></g><g><use xlink:href="#c1MCBR9J84" opacity="1" fill="#000000" fill-opacity="1"></use><g><use xlink:href="#c1MCBR9J84" opacity="1" fill-opacity="0" stroke="#000000" stroke-width="1" stroke-opacity="0"></use></g></g><g><use xlink:href="#a35oO64RKp" opacity="1" fill="#000000" fill-opacity="1"></use><g><use xlink:href="#a35oO64RKp" opacity="1" fill-opacity="0" stroke="#000000" stroke-width="1" stroke-opacity="0"></use></g></g><g><use xlink:href="#b2UGzlW3gp" opacity="1" fill="#000000" fill-opacity="1"></use><g><use xlink:href="#b2UGzlW3gp" opacity="1" fill-opacity="0" stroke="#000000" stroke-width="1" stroke-opacity="0"></use></g></g><g><use xlink:href="#a2HsvLhCTB" opacity="1" fill="#000000" fill-opacity="1"></use><g><use xlink:href="#a2HsvLhCTB" opacity="1" fill-opacity="0" stroke="#000000" stroke-width="1" stroke-opacity="0"></use></g></g><g><use xlink:href="#a4H7fAebkS" opacity="1" fill="#00843e" fill-opacity="1"></use><g><use xlink:href="#a4H7fAebkS" opacity="1" fill-opacity="0" stroke="#000000" stroke-width="1" stroke-opacity="0"></use></g></g><g><use xlink:href="#b4ZZltdmji" opacity="1" fill="#00843e" fill-opacity="1"></use><g><use xlink:href="#b4ZZltdmji" opacity="1" fill-opacity="0" stroke="#000000" stroke-width="1" stroke-opacity="0"></use></g></g><g><use xlink:href="#p2vPrtKVoD" opacity="1" fill="#00843e" fill-opacity="1"></use><g><use xlink:href="#p2vPrtKVoD" opacity="1" fill-opacity="0" stroke="#000000" stroke-width="1" stroke-opacity="0"></use></g></g><g><use xlink:href="#iUcIbOYMp" opacity="1" fill="#00843e" fill-opacity="1"></use><g><use xlink:href="#iUcIbOYMp" opacity="1" fill-opacity="0" stroke="#000000" stroke-width="1" stroke-opacity="0"></use></g></g><g><use xlink:href="#dCvEh3GKL" opacity="1" fill="#00843e" fill-opacity="1"></use><g><use xlink:href="#dCvEh3GKL" opacity="1" fill-opacity="0" stroke="#000000" stroke-width="1" stroke-opacity="0"></use></g></g></g></svg>