<?xml version="1.0" encoding="UTF-8" standalone="no"?>
<!DOCTYPE svg PUBLIC "-//W3C//DTD SVG 1.1//EN" "http://www.w3.org/Graphics/SVG/1.1/DTD/svg11.dtd">
<svg version="1.1" xmlns="http://www.w3.org/2000/svg" xmlns:xlink="http://www.w3.org/1999/xlink" preserveAspectRatio="xMidYMid meet" viewBox="3.8390000000000004 660.993 1414.0523527080045 328.842" width="2178.12" height="500"><defs><path d="M305.7 843.09C305.7 915.03 247.3 973.43 175.36 973.43C103.43 973.43 45.02 915.03 45.02 843.09C45.02 771.15 103.43 712.75 175.36 712.75C247.3 712.75 305.7 771.15 305.7 843.09Z" id="ajv06YH2s"></path><path d="M215.17 786.95L344.39 786.29L327.98 798.17L239.44 862.31L273.61 966.16L280.41 986.84L202.17 929.69L203.04 905.86L212.75 894L218.86 864.16L202.68 878.54L190.82 867.04L168.89 862.36L182.19 878.54L189.38 897.59L192.98 901.55L187.22 904.42L187.4 918.91L185.24 917.33L182.91 900.83L175.36 900.11L185.43 893.64L163.14 859.49L147.68 853.38L151.64 851.58L154.87 846.55L153.79 841.15L163.14 849.78L179.32 845.83L181.11 836.12L147.68 821.02L123.6 856.61L155.59 902.63L152.54 926.61L70.39 986.61L77.11 966.16L111.27 862.31L22.74 798.17L6.34 786.29L25.57 786.39L134.87 786.95L168.68 682.99L175.03 663.49L181.36 682.99L215.17 786.95ZM202.69 876.38L227.13 854.46L215.99 840.08L192.98 867.76L202.69 876.38ZM191.91 865.96L214.2 838.64L198.38 827.85L177.53 859.13L191.91 865.96ZM172.49 859.85L178.6 849.42L162.42 854.1L172.49 859.85ZM183.28 835.4L181.48 844.39L187.95 840.07L199.46 823.54L181.48 812.39L171.06 828.57L183.28 835.4ZM169.26 828.21L179.33 811.32L164.95 803.05L151.64 820.66L169.26 828.21Z" id="b4yGzSq3J"></path><path d="M380.21 958.06L380.21 864.73L344.39 864.73L344.39 847.35L434.57 847.35L434.57 864.73L398.74 864.73L398.74 958.06L380.21 958.06Z" id="b4G3gMluU2"></path><path d="M497.3 958.06C497.3 934.07 497.3 920.74 497.3 918.08C497.3 914.16 496.81 910.26 496.76 909.39C496.22 904.63 494.51 901.12 494.26 900.21C492.3 895.78 489 893.67 488.42 892.94C487.09 891.99 485.6 891.28 484.01 890.85C481.33 890.1 478.53 890.17 477.92 890.1C474.39 890.1 471.63 891.13 470.93 891.25C468.94 891.92 467.12 892.98 465.55 894.37C465.25 894.64 464.95 894.92 464.66 895.21C463.7 896.19 462.86 897.28 462.17 898.47C461.24 900.05 460.66 901.63 460.5 901.99C460.38 902.29 460.27 902.59 460.16 902.9C459.72 904.22 459.37 905.57 459.13 906.94C458.76 909.02 458.65 910.98 458.6 911.43C458.51 912.75 458.47 914.07 458.47 915.39C457.37 914.92 448.58 911.17 447.48 910.7C447.46 906.69 447.94 902.69 448.93 898.81C449.58 896.28 450.47 893.83 451.59 891.48C455.7 882.87 462.49 879.13 463.7 877.76C467 875.68 470.66 874.23 474.5 873.49C477.42 872.91 480.4 872.63 483.38 872.64C485.52 872.63 487.66 872.78 489.78 873.07C493.1 873.54 495.25 874.39 495.86 874.53C496.8 874.87 497.72 875.27 498.6 875.72C500.63 876.75 502.54 878 504.28 879.46C505.72 880.68 507.01 882.05 508.14 883.56C511.67 888.33 512.84 892.69 513.36 893.71C513.98 895.64 514.48 897.6 514.89 899.58C515.18 901.01 515.4 902.45 515.56 903.9C515.65 904.84 515.74 905.78 515.82 906.72C516.05 909.54 516.03 911.08 516.05 911.56C516.05 911.61 516.05 911.65 516.05 911.7C516.05 914.79 516.05 930.24 516.05 958.06L497.3 958.06ZM439.71 958.06L439.71 847.35L456.24 847.35L456.24 905.63L458.47 905.63L458.47 958.06L439.71 958.06Z" id="a4Z7DM7xBS"></path><path d="M587.67 921.32C587.67 917.27 587.67 915.01 587.67 914.56C587.66 912.22 587.53 909.89 587.26 907.57C586.28 899.29 583.34 896.08 582.9 894.8C580.85 892.11 577.96 890.2 574.68 889.38C571.76 888.57 568.79 888.65 568.14 888.57C565.94 888.56 563.74 888.79 561.6 889.26C557.11 890.29 554.68 892.52 553.91 892.88C552.91 893.69 552.01 894.6 551.22 895.61C547.09 900.86 546.56 908.33 546.04 909.74C545.8 911.88 545.68 914.03 545.69 916.17C545.67 918.68 545.86 921.19 546.26 923.67C546.92 927.68 548.13 930.18 548.34 930.9C549.09 932.62 550.06 934.23 551.22 935.7C553.98 939.13 557.9 941.43 562.24 942.16C563.93 942.48 565.65 942.63 567.37 942.62C574.21 942.62 577.99 939.89 579.17 939.58C582.04 937.81 584.4 935.32 586.02 932.35C586.3 931.84 586.57 931.31 586.82 930.78C588.65 931.33 603.29 935.76 605.12 936.32C600.35 947.54 591.87 952.02 590.39 953.77C580.44 959.99 570.64 959.37 568.45 959.99C555.84 959.99 548.52 955.08 546.3 954.54C536.77 949.08 532.92 940.91 531.43 939.39C528.82 934.61 527.15 929.37 526.51 923.96C526.22 921.68 526.08 919.39 526.08 917.1C526.06 913.2 526.42 909.32 527.16 905.5C527.96 901.31 529.36 897.25 531.31 893.46C536.54 883.42 544.39 879.44 545.84 877.89C555.15 872.35 565.22 872.91 567.37 872.35C570.92 872.33 574.46 872.72 577.93 873.51C581.99 874.43 585.85 876.09 589.32 878.39C594.64 881.96 598.87 886.93 601.57 892.75C601.98 893.62 602.37 894.51 602.73 895.42C604.17 899.07 605.15 902.89 605.67 906.79C606.29 911.28 606.41 916.12 606.04 921.32L587.67 921.32ZM539.85 921.32L539.85 907.33L596.97 907.33L596.97 921.32L539.85 921.32Z" id="b3OWtPjGv"></path><path d="M638.7 958.06L638.7 847.35C665.04 847.35 679.67 847.35 682.6 847.35C691.79 847.35 696.7 850.06 698.27 850.37C699.21 850.8 700.13 851.3 701.01 851.85C703.79 853.56 706.27 855.71 708.36 858.21C709.66 859.79 710.78 861.51 711.69 863.34C715.19 870.34 714.84 876.35 715.19 877.79C715.21 880.31 714.93 882.82 714.36 885.27C713.69 888.15 712.5 890.88 710.85 893.32C707.95 897.58 704.02 900.45 699.05 901.93C699.05 899.63 699.05 898.35 699.05 898.09C701.76 898.69 704.39 899.65 706.84 900.95C710.04 902.65 712.81 905.07 714.92 908.01C720.34 915.54 719.8 923.44 720.34 925.15C720.36 928.07 720.08 930.98 719.52 933.84C718.93 936.8 717.94 939.67 716.58 942.37C712.81 949.75 706.51 952.75 705.39 953.91C702.7 955.38 699.81 956.45 696.81 957.08C693.83 957.73 690.58 958.06 687.06 958.06L638.7 958.06ZM657.46 940.61C673.83 940.61 682.93 940.61 684.75 940.61C686.48 940.62 688.2 940.41 689.88 939.99C691.11 939.67 692.3 939.22 693.44 938.64C697.28 936.68 698.87 933.66 699.47 933.11C700.47 931.45 701.14 929.61 701.43 927.7C701.59 926.68 701.67 925.65 701.66 924.61C701.67 922.98 701.46 921.34 701.02 919.77C700.71 918.67 700.28 917.62 699.74 916.62C698.49 914.32 696.62 912.41 694.36 911.1C694.28 911.06 694.2 911.01 694.13 910.97C692.61 910.11 690.95 909.51 689.23 909.2C687.93 908.96 686.61 908.85 685.29 908.85C683.43 908.85 674.15 908.85 657.46 908.85L657.46 940.61ZM657.46 891.56C672.4 891.56 680.7 891.56 682.37 891.56C683.71 891.56 685.06 891.42 686.37 891.12C687.46 890.88 688.51 890.51 689.52 890.02C692.67 888.48 694.01 885.94 694.51 885.48C695.22 884.31 695.73 883.02 696 881.67C696.34 880.12 696.32 878.67 696.36 878.34C696.36 878.26 696.36 878.18 696.36 878.1C696.37 876.43 696.11 874.78 695.57 873.2C694.96 871.44 693.97 869.83 692.67 868.49C691.01 866.79 688.89 865.61 686.57 865.1C685.19 864.79 683.78 864.64 682.37 864.65C680.7 864.65 672.4 864.65 657.46 864.65L657.46 891.56Z" id="a4FO9jq8p1"></path><path d="M730.14 958.06L730.14 845.04L748.67 845.04L748.67 958.06L730.14 958.06Z" id="c1umywwjOB"></path><path d="M814.07 906.1C814.14 897.49 810.61 894.69 810.22 893.42C809.07 892.26 807.69 891.36 806.16 890.78C802.76 889.43 798.53 889.49 797.69 889.35C797.46 889.34 797.23 889.34 797 889.34C791.39 889.34 787.24 891.69 786.16 891.96C783.4 893.34 781.18 895.62 779.87 898.43C779.48 899.24 779.14 900.09 778.86 900.95C777.17 900.42 763.64 896.18 761.94 895.65C765.02 885.11 772.5 880.42 773.67 878.73C780.92 873.38 790.55 873.14 792.42 872.52C793.95 872.41 795.47 872.35 797 872.35C800.28 872.34 803.56 872.6 806.8 873.15C810.13 873.7 813.38 874.65 816.49 875.97C824.91 879.58 827.73 886.62 828.98 887.8C830.14 890.04 830.96 892.44 831.41 894.91C831.52 895.52 831.61 896.14 831.67 896.76C831.85 898.56 831.98 900.36 832.05 902.16C832.11 903.68 832.14 905.2 832.13 906.72C832.13 910.11 832.13 927.11 832.13 957.69L815.91 957.69L815.91 939.7C817.53 941.45 818.42 942.42 818.6 942.62C817.1 945.06 815.37 947.35 813.43 949.46C811.14 951.98 808.46 954.12 805.5 955.8C802.85 957.26 800.02 958.31 797.07 958.95C793.3 959.79 789.75 959.85 788.93 959.95C788.21 959.98 787.5 959.99 786.78 959.99C784.48 960.01 782.19 959.82 779.92 959.43C775.25 958.6 772.39 956.86 771.55 956.57C769.26 955.33 767.17 953.74 765.37 951.86C764.11 950.53 763.03 949.06 762.14 947.46C758.95 941.77 759.26 936.18 758.95 934.93C758.94 932.91 759.13 930.89 759.51 928.9C759.83 927.26 760.31 925.67 760.94 924.13C762.94 919.33 766.48 916.66 767.09 915.83C770.92 912.61 775.85 911 776.82 910.46C777.17 910.34 777.51 910.22 777.86 910.1C779.41 909.6 780.98 909.15 782.56 908.75C785.8 907.91 788.88 907.34 789.58 907.18C791.91 906.73 794.25 906.31 796.6 905.92C799.12 905.5 801.65 905.11 804.19 904.76C808.27 904.18 812.35 903.59 816.42 902.98C817.84 902.76 819.26 902.55 820.68 902.33C820.68 902.33 814.73 905.73 814.07 906.1ZM819.45 917.63C811.07 918.94 806.51 919.71 805.07 919.94C803.65 920.18 802.23 920.42 800.81 920.67C797.46 921.27 795.38 921.71 794.77 921.82C793.49 922.09 792.22 922.38 790.96 922.7C789.17 923.15 787.94 923.55 787.6 923.64C787.46 923.69 787.31 923.74 787.16 923.78C786.26 924.1 785.39 924.46 784.53 924.87C783.18 925.51 782.31 926.1 782.06 926.23C781.94 926.31 781.82 926.39 781.7 926.47C780.97 926.97 780.29 927.55 779.68 928.18C779.15 928.74 778.68 929.35 778.28 930.01C777.72 930.96 777.36 932 777.21 933.09C777.13 933.62 777.09 934.16 777.09 934.7C777.08 935.77 777.24 936.83 777.55 937.85C777.8 938.65 778.16 939.42 778.63 940.12C779.36 941.22 780.31 942.16 781.41 942.89C781.96 943.25 782.53 943.57 783.12 943.85C785.69 945.05 788.7 945.07 789.31 945.21C789.7 945.23 790.08 945.23 790.47 945.23C796.19 945.23 799.39 943.58 800.39 943.4C800.67 943.27 800.95 943.14 801.23 943C802.6 942.33 803.9 941.53 805.13 940.61C806.31 939.72 807.39 938.69 808.34 937.55C808.97 936.79 809.55 936 810.09 935.18C810.87 933.97 811.26 933.06 811.39 932.83C811.59 932.39 811.76 931.93 811.92 931.47C812.5 930.04 812.92 928.56 813.18 927.04C813.39 925.82 813.52 924.59 813.57 923.36C813.6 922.64 813.63 921.91 813.65 921.18C813.75 918.51 813.75 917.02 813.76 916.56C813.76 916.36 813.76 916.15 813.76 915.94C813.76 915.94 818.88 917.46 819.45 917.63Z" id="cjvkhvjdC"></path><path d="M900.18 903.87C899.54 901.83 898.61 899.88 897.42 898.09C896.23 896.31 894.75 894.74 893.03 893.46C888.03 889.73 882.79 890.1 881.65 889.73C874.7 889.73 871.25 892.58 870.09 892.89C869.97 892.98 869.85 893.06 869.73 893.15C865.04 896.57 863.51 901.62 862.81 902.57C861.9 905.05 861.28 907.63 860.95 910.26C860.7 912.22 860.58 914.2 860.58 916.17C860.57 918.83 860.8 921.48 861.27 924.1C862.49 930.64 865.43 934.19 865.89 935.32C868.71 939.23 873.04 941.78 877.84 942.35C879.1 942.53 880.37 942.62 881.65 942.62C889.03 942.62 892.13 939.58 893.3 939.24C895.03 937.84 896.49 936.13 897.59 934.2C898.46 932.7 899.17 931.12 899.72 929.47C901.61 929.9 916.74 933.28 918.63 933.7C917.53 937.44 915.89 941.01 913.77 944.28C911.49 947.77 908.57 950.79 905.17 953.19C900.68 956.33 895.53 958.42 890.12 959.3C887.32 959.77 884.49 960.01 881.65 960C878.12 960.02 874.59 959.65 871.14 958.9C867.1 958.02 863.24 956.46 859.74 954.27C850.67 948.54 847.25 940.19 845.86 938.62C843.53 933.73 842.02 928.49 841.41 923.11C841.13 920.81 840.99 918.49 840.98 916.17C841.06 903.41 845.51 895.8 846.02 893.53C850.97 883.65 858.71 879.56 860.12 878C869.27 872.35 879.7 872.92 881.88 872.35C885.77 872.32 889.65 872.78 893.43 873.71C897.89 874.82 902.1 876.77 905.83 879.46C912.36 884.2 916.63 890.68 918.63 898.88C907.56 901.87 901.41 903.54 900.18 903.87Z" id="b5WiuRHXWO"></path><path d="M925.59 958.06L925.74 847.35L944.5 847.35L944.5 915L974.87 875.03L998.01 875.03L965.8 916.54L1000.78 958.06L976.25 958.06L944.5 918.08L944.5 958.06L925.59 958.06Z" id="a46w6zwhGv"></path><path d="M1053.5 958.06L1053.5 864.73L1017.67 864.73L1017.67 847.35L1107.85 847.35L1107.85 864.73L1072.03 864.73L1072.03 958.06L1053.5 958.06Z" id="a34DoTRM4a"></path><path d="M1158.41 921.7C1158.41 917.64 1158.41 915.39 1158.41 914.93C1158.41 912.6 1158.28 910.27 1158.01 907.95C1157.03 899.67 1154.08 896.45 1153.65 895.18C1151.6 892.49 1148.71 890.58 1145.43 889.75C1142.51 888.95 1139.54 889.03 1138.89 888.95C1136.69 888.93 1134.49 889.16 1132.35 889.64C1127.86 890.67 1125.43 892.89 1124.66 893.26C1123.66 894.06 1122.76 894.98 1121.97 895.98C1117.84 901.24 1117.31 908.71 1116.79 910.12C1116.55 912.25 1116.43 914.4 1116.44 916.55C1116.42 919.06 1116.61 921.57 1117.01 924.04C1117.67 928.05 1118.88 930.55 1119.09 931.27C1119.84 932.99 1120.81 934.61 1121.97 936.08C1124.73 939.51 1128.65 941.81 1132.99 942.54C1134.68 942.85 1136.4 943.01 1138.12 943C1144.96 943 1148.74 940.26 1149.92 939.96C1152.79 938.19 1155.15 935.69 1156.77 932.72C1157.05 932.21 1157.32 931.69 1157.57 931.16C1159.4 931.71 1174.04 936.14 1175.87 936.69C1171.1 947.92 1162.62 952.4 1161.14 954.14C1151.19 960.37 1141.39 959.75 1139.19 960.37C1126.59 960.37 1119.27 955.46 1117.05 954.91C1107.52 949.45 1103.66 941.28 1102.18 939.77C1099.57 934.98 1097.9 929.74 1097.26 924.33C1096.97 922.06 1096.83 919.77 1096.83 917.47C1096.81 913.58 1097.17 909.7 1097.91 905.87C1098.71 901.68 1100.11 897.63 1102.06 893.83C1107.29 883.8 1115.14 879.82 1116.59 878.26C1125.89 872.73 1135.97 873.28 1138.12 872.73C1141.67 872.7 1145.21 873.09 1148.68 873.88C1152.74 874.81 1156.6 876.46 1160.07 878.76C1165.39 882.34 1169.62 887.31 1172.31 893.12C1172.73 894 1173.12 894.89 1173.48 895.79C1174.92 899.45 1175.9 903.27 1176.42 907.16C1177.04 911.65 1177.16 916.5 1176.79 921.7L1158.41 921.7ZM1110.6 921.7L1110.6 907.71L1167.72 907.71L1167.72 921.7L1110.6 921.7Z" id="a2XRQGnBd4"></path><path d="M1172.7 958.06L1203.07 916.08L1173.32 875.03L1195.15 875.03L1213.83 901.55L1232.21 875.03L1254.04 875.03L1224.29 916.08L1254.81 958.06L1232.98 958.06L1213.83 930.61L1194.54 958.06L1172.7 958.06Z" id="a12Vld4Dnj"></path><path d="M1308.72 906.48C1308.8 897.87 1305.26 895.06 1304.87 893.79C1303.72 892.63 1302.34 891.73 1300.81 891.16C1297.41 889.81 1293.18 889.87 1292.34 889.72C1292.11 889.72 1291.88 889.72 1291.65 889.72C1286.04 889.72 1281.9 892.07 1280.81 892.33C1278.05 893.72 1275.83 896 1274.52 898.8C1274.13 899.62 1273.79 900.46 1273.51 901.33C1271.82 900.8 1258.29 896.55 1256.59 896.02C1259.67 885.49 1267.15 880.8 1268.32 879.11C1275.57 873.76 1285.2 873.52 1287.08 872.89C1288.6 872.78 1290.12 872.73 1291.65 872.73C1294.93 872.71 1298.21 872.98 1301.45 873.52C1304.78 874.08 1308.03 875.02 1311.14 876.34C1319.56 879.95 1322.38 887 1323.63 888.18C1324.79 890.42 1325.61 892.81 1326.06 895.29C1326.17 895.9 1326.26 896.52 1326.32 897.14C1326.5 898.93 1326.63 900.73 1326.7 902.54C1326.76 904.06 1326.79 905.57 1326.79 907.09C1326.79 910.49 1326.79 927.48 1326.79 958.06L1310.56 958.06L1310.56 940.07C1312.18 941.83 1313.08 942.8 1313.25 943C1311.75 945.43 1310.02 947.73 1308.08 949.84C1305.79 952.36 1303.11 954.5 1300.15 956.18C1297.5 957.63 1294.67 958.69 1291.72 959.32C1287.95 960.17 1284.4 960.23 1283.58 960.33C1282.86 960.36 1282.15 960.37 1281.43 960.37C1279.13 960.38 1276.84 960.19 1274.57 959.81C1269.9 958.98 1267.04 957.23 1266.2 956.95C1263.91 955.71 1261.82 954.12 1260.02 952.23C1258.76 950.91 1257.68 949.43 1256.79 947.84C1253.6 942.15 1253.92 936.56 1253.6 935.31C1253.59 933.28 1253.78 931.26 1254.16 929.27C1254.48 927.64 1254.96 926.04 1255.59 924.51C1257.59 919.7 1261.13 917.03 1261.75 916.2C1265.57 912.98 1270.5 911.37 1271.48 910.84C1271.82 910.71 1272.16 910.59 1272.51 910.48C1274.06 909.98 1275.63 909.53 1277.21 909.12C1280.45 908.29 1283.53 907.71 1284.23 907.55C1286.57 907.1 1288.9 906.68 1291.25 906.29C1293.77 905.88 1296.3 905.49 1298.84 905.13C1302.92 904.55 1307 903.96 1311.07 903.35C1312.49 903.14 1313.91 902.93 1315.33 902.71C1315.33 902.71 1309.38 906.1 1308.72 906.48ZM1314.1 918.01C1305.72 919.32 1301.16 920.09 1299.72 920.32C1298.3 920.55 1296.88 920.8 1295.46 921.05C1292.11 921.65 1290.03 922.08 1289.42 922.2C1288.14 922.46 1286.87 922.75 1285.61 923.07C1283.82 923.52 1282.59 923.92 1282.25 924.02C1282.11 924.06 1281.96 924.11 1281.81 924.16C1280.92 924.48 1280.04 924.84 1279.18 925.24C1277.83 925.88 1276.96 926.47 1276.71 926.61C1276.59 926.69 1276.47 926.77 1276.35 926.85C1275.62 927.35 1274.94 927.92 1274.33 928.56C1273.8 929.11 1273.33 929.73 1272.93 930.39C1272.38 931.33 1272.01 932.38 1271.86 933.46C1271.78 934 1271.74 934.54 1271.74 935.08C1271.73 936.14 1271.89 937.2 1272.2 938.22C1272.45 939.03 1272.81 939.79 1273.28 940.5C1274.01 941.6 1274.96 942.54 1276.06 943.27C1276.61 943.63 1277.18 943.95 1277.77 944.23C1280.34 945.42 1283.35 945.45 1283.96 945.58C1284.35 945.6 1284.73 945.61 1285.12 945.61C1290.84 945.61 1294.05 943.96 1295.04 943.77C1295.32 943.65 1295.6 943.52 1295.88 943.38C1297.25 942.7 1298.55 941.9 1299.78 940.99C1300.96 940.09 1302.04 939.07 1302.99 937.92C1303.62 937.17 1304.2 936.37 1304.74 935.55C1305.52 934.35 1305.91 933.44 1306.04 933.2C1306.24 932.76 1306.42 932.31 1306.57 931.85C1307.15 930.42 1307.57 928.93 1307.83 927.41C1308.04 926.2 1308.17 924.97 1308.22 923.74C1308.25 923.01 1308.28 922.28 1308.3 921.56C1308.4 918.89 1308.4 917.4 1308.41 916.94C1308.41 916.73 1308.41 916.52 1308.41 916.32C1308.41 916.32 1313.53 917.84 1314.1 918.01Z" id="d10GP452Lp"></path><path d="M1396.13 958.06C1396.13 934.07 1396.13 920.74 1396.13 918.08C1396.13 914.16 1395.65 910.26 1395.59 909.39C1395.06 904.63 1393.35 901.12 1393.1 900.21C1391.14 895.78 1387.84 893.67 1387.25 892.94C1385.92 891.99 1384.43 891.28 1382.85 890.85C1380.17 890.1 1377.37 890.17 1376.76 890.1C1373.22 890.1 1370.46 891.13 1369.76 891.25C1367.78 891.92 1365.95 892.98 1364.39 894.37C1364.08 894.64 1363.79 894.92 1363.5 895.21C1362.53 896.19 1361.69 897.28 1361.01 898.47C1360.07 900.05 1359.5 901.63 1359.33 901.99C1359.22 902.29 1359.11 902.59 1359 902.9C1358.55 904.22 1358.21 905.57 1357.97 906.94C1357.6 909.02 1357.49 910.98 1357.43 911.43C1357.35 912.75 1357.31 914.07 1357.31 915.39C1356.21 914.92 1347.41 911.17 1346.31 910.7C1346.29 906.69 1346.78 902.69 1347.76 898.81C1348.42 896.28 1349.31 893.83 1350.43 891.48C1354.54 882.87 1361.33 879.13 1362.54 877.76C1365.84 875.68 1369.5 874.23 1373.33 873.49C1376.26 872.91 1379.23 872.63 1382.22 872.64C1384.36 872.63 1386.5 872.78 1388.62 873.07C1391.93 873.54 1394.09 874.39 1394.7 874.53C1395.64 874.87 1396.55 875.27 1397.44 875.72C1399.47 876.75 1401.37 878 1403.12 879.46C1404.56 880.68 1405.85 882.05 1406.97 883.56C1410.51 888.33 1411.68 892.69 1412.2 893.71C1412.81 895.64 1413.32 897.6 1413.73 899.58C1414.02 901.01 1414.24 902.45 1414.39 903.9C1414.49 904.84 1414.58 905.78 1414.65 906.72C1414.88 909.54 1414.87 911.08 1414.89 911.56C1414.89 911.61 1414.89 911.65 1414.89 911.7C1414.89 914.79 1414.89 930.24 1414.89 958.06L1396.13 958.06ZM1338.55 958.06L1338.55 875.03L1355.08 875.03L1355.08 900.78L1357.31 900.78L1357.31 958.06L1338.55 958.06Z" id="f10CHrkEYk"></path></defs><g><g><use xlink:href="#ajv06YH2s" opacity="1" fill="#966b60" fill-opacity="1"></use><g><use xlink:href="#ajv06YH2s" opacity="1" fill-opacity="0" stroke="#000000" stroke-width="5" stroke-opacity="1"></use></g></g><g><use xlink:href="#b4yGzSq3J" opacity="1" fill="#ffffff" fill-opacity="1"></use><g><use xlink:href="#b4yGzSq3J" opacity="1" fill-opacity="0" stroke="#000000" stroke-width="5" stroke-opacity="1"></use></g></g><g><use xlink:href="#b4G3gMluU2" opacity="1" fill="#000000" fill-opacity="1"></use></g><g><use xlink:href="#a4Z7DM7xBS" opacity="1" fill="#000000" fill-opacity="1"></use></g><g><use xlink:href="#b3OWtPjGv" opacity="1" fill="#000000" fill-opacity="1"></use></g><g><use xlink:href="#a4FO9jq8p1" opacity="1" fill="#000000" fill-opacity="1"></use></g><g><use xlink:href="#c1umywwjOB" opacity="1" fill="#000000" fill-opacity="1"></use></g><g><use xlink:href="#cjvkhvjdC" opacity="1" fill="#000000" fill-opacity="1"></use></g><g><use xlink:href="#b5WiuRHXWO" opacity="1" fill="#000000" fill-opacity="1"></use></g><g><use xlink:href="#a46w6zwhGv" opacity="1" fill="#000000" fill-opacity="1"></use></g><g><use xlink:href="#a34DoTRM4a" opacity="1" fill="#000000" fill-opacity="1"></use></g><g><use xlink:href="#a2XRQGnBd4" opacity="1" fill="#000000" fill-opacity="1"></use></g><g><use xlink:href="#a12Vld4Dnj" opacity="1" fill="#000000" fill-opacity="1"></use></g><g><use xlink:href="#d10GP452Lp" opacity="1" fill="#000000" fill-opacity="1"></use></g><g><use xlink:href="#f10CHrkEYk" opacity="1" fill="#000000" fill-opacity="1"></use></g></g></svg>